<svg xmlns="http://www.w3.org/2000/svg" viewBox="0 0 210 205">
  <!-- Chirp, the songbird — Word Bird. Mid-song (open beak), perched on a
       branch, tail fanned. -->
  <path id="tailTop" fill="#e06a44"
    d="M 146 86 C 166 60 186 50 198 54 C 194 70 178 86 152 96 Z" />
  <path id="tailBottom" fill="#f5a300"
    d="M 150 96 C 172 82 192 78 202 84 C 194 98 172 106 152 106 Z" />
  <path id="branch" fill="#8a6d3f"
    d="M 56 186 L 158 186 C 162 186 165 189 165 191 C 165 194 162 196 158 196 L 56 196 C 52 196 49 194 49 191 C 49 189 52 186 56 186 Z" />
  <path id="legL" fill="#b4562f" d="M 84 166 L 90 166 L 90 189 L 84 189 Z" />
  <path id="legR" fill="#b4562f" d="M 110 166 L 116 166 L 116 189 L 110 189 Z" />
  <path id="body" fill="#f58a5f"
    d="M 95 42 C 135 42 160 72 160 110 C 160 146 134 170 98 170 C 62 170 38 146 38 108 C 38 70 58 42 95 42 Z" />
  <ellipse id="belly" fill="#fff3e0" cx="90" cy="140" rx="40" ry="24" />
  <path id="wing" fill="#e06a44"
    d="M 116 90 C 140 86 154 98 152 118 C 142 134 120 136 106 126 C 106 110 108 98 116 90 Z" />
  <ellipse id="eye" fill="#ffffff" cx="70" cy="86" rx="12" ry="13" />
  <circle id="pupil" fill="#2c2344" cx="73" cy="89" r="5.5" />
  <path id="beakTop" fill="#f5a300"
    d="M 52 96 C 34 88 20 92 14 100 C 24 105 40 105 52 103 Z" />
  <path id="beakBottom" fill="#e08900"
    d="M 52 104 C 38 108 28 114 25 121 C 35 121 46 114 52 108 Z" />
  <circle id="cheek" fill="#e06a44" opacity="0.3" cx="88" cy="108" r="8" />
</svg>
